<svg xmlns:xlink="http://www.w3.org/1999/xlink" id="root" width="300" height="400" xmlns="http://www.w3.org/2000/svg">
    <defs>
        <g id="mines">
            <polygon points="6,6 7,6 7,5 7,5 8,5 8,6 10,6 10,8 11,8 11,9 15,9 15,8 19,8 19,7 22,7 22,3 24,3 24,2 25,2 25,3 27,3 27,7 30,7 30,8 35,8 34,9 38,9 38,8 39,8 39,6 41,6 41,5 42,5 42,6 43,6 43,7 44,7 44,8 43,8
                    43,10 41,10 41,11 40,11 40,16 41,16 41,19 42,19 42,22 46,22 46,24 47,24 47,25 46,25 46,27 42,27 42,30 41,30 41,34 40,34 40,38 41,38 41,39 43,39 43,41 44,41 44,42 43,42 43,43 42,43 42,44 41,44 41,43
                    39,43 39,41 38,41 38,40 34,40 34,41 30,41 30,42 27,42 27,46 25,46 25,47 24,47 24,46 22,46 22,42 19,42 19,41 15,41 15,40 11,40 11,41 10,41 10,43 8,43 8,44 7,44 7,43 6,43 6,42 5,42 5,41 6,41 6,39 8,39
                    8,38 9,38 9,34 8,34 8,30 7,30 7,27 3,27 3,25 2,25 2,24 3,24 3,22 7,22 7,19 8,19 8,15 9,15 9,11 8,11 8,10 6,10 6,8 5,8 5,7 6,7 6,6"
                     fill-rule="evenodd" fill="#000" stroke-width="0"/>
            <polygon
                    points="11,17 11,16 12,16 12,14 13,14 13,13 14,13 14,12 16,12 16,11 19,11 19,12 21,12 21,14 22,14 22,17 20,17 20,18 18,18 18,20 17,20 17,22 14,22 14,21 12,21 12,19 11,19 11,16 11,17"
                    fill-rule="evenodd" fill="#DDD"/>
        </g>
        <g id="flag">
            <polygon points="14,5 15,5 15,6 20,6 20,5 25,5 25,6 27,6 27,7 30,7 31,7 31,8 35,8 35,7 37,7 37,6 38,6 38,5 40,5 40,4 40,22 39,22 39,23 38,23 38,24 37,24 37,25 35,25 35,26 30,26 30,25 28,25 28,24 25,24 25,23
            21,23 21,24 16,24 16,43 42,43 41,43 41,44 38,44 38,45 11,45 11,44 9,44 9,43 7,43 14,43 14,5"
                     fill-rule="evenodd" fill="#4D000C"/>
            <polygon
                    points="17,7 21,7 21,6 24,6 24,7 26,7 26,8 30,8 30,9 36,9 36,8 38,8 38,7 39,7 39,6 39,21 38,21 38,22 37,22 37,23 36,23 36,24 34,24 34,25 31,25 31,24 29,24 29,23 26,23 26,22 20,22 20,23 17,23 17,7"
                    fill-rule="evenodd" fill="#F00" stroke-width="0"/>
        </g>
    </defs>
    <g stroke="#EDEDED">
        <use xlink:href="#flag"/>
        <rect fill="#FFF" width="100%" height="100%" id="svg_0"/>
    </g>
    <g id="main" stroke="#EDEDED" fill="#6A9FBF"></g>
    <g id="content" text-anchor="middle" stroke="#EDEDED" fill="#FFF" font-family="大签字笔体"></g>
    <g id="board">
        <!--        <use id="f" xlink:href="#flag" y="0" transform="scale(0.8)"/>-->
        <!--        <use id="m" xlink:href="#mines" y="0" transform="scale(0.8)"/>-->
    </g>
    <g font-size="40" font-family="大签字笔体">
        <text x="5" y="100%" dy="-50">|已标旗帜:
            <tspan id="flagInfo" fill="red">0</tspan>
        </text>
        <text x="5" y="100%" dy="-10">|剩余雷数:
            <tspan id="minesInfo" fill="red">0</tspan>
        </text>
    </g>
    <text id="over" x="50%" y="50%" dy="50" stroke="#000" stroke-width="2" text-anchor="middle" fill="#FFF"
          font-size="50" font-family="大签字笔体">GAME
    </text>
</svg>