<svg id="root" width="490" height="490" xmlns="http://www.w3.org/2000/svg">
    <rect fill="#888" width="100%" height="100%"/>
    <g stroke="#888">
        <g fill="#000">
            <rect fill="#FFF" x="45" y="45" width="440" height="440"/>
            <rect x="5" y="5" width="40" height="40"/>

            <rect x="5" y="45" width="40" height="40"/>

            <rect x="45" y="5" width="40" height="40"/>

            <rect x="5" y="85" width="40" height="40"/>
            <rect x="85" y="5" width="40" height="40"/>

            <rect x="5" y="125" width="40" height="40"/>
            <rect x="125" y="5" width="40" height="40"/>

            <rect x="5" y="165" width="40" height="40"/>
            <rect x="165" y="5" width="40" height="40"/>

            <rect x="5" y="205" width="40" height="40"/>
            <rect x="205" y="5" width="40" height="40"/>

            <rect x="5" y="245" width="40" height="40"/>
            <rect x="245" y="5" width="40" height="40"/>

            <rect x="5" y="285" width="40" height="40"/>
            <rect x="285" y="5" width="40" height="40"/>

            <rect x="5" y="325" width="40" height="40"/>
            <rect x="325" y="5" width="40" height="40"/>

            <rect x="5" y="365" width="40" height="40"/>
            <rect x="365" y="5" width="40" height="40"/>

            <rect x="5" y="405" width="40" height="40"/>
            <rect x="405" y="5" width="40" height="40"/>

            <rect x="5" y="445" width="40" height="40"/>
            <rect x="445" y="5" width="40" height="40"/>
        </g>
        <g id="none" fill="#000">
        </g>
        <g id="wall" fill="#B74F4F">
        </g>
        <g id="goal" fill="#B4F474">
        </g>
        <g id="box" fill="#AF6500">
        </g>
        <circle id="man" r="10" fill="#389FD6"/>
    </g>
    <g fill="#FFF" font-size="30" font-family="大签字笔体" text-anchor="middle">
        <text x="25" y="35">0</text>
        <text x="65" y="35">1</text>
        <text x="105" y="35">2</text>
        <text x="145" y="35">3</text>
        <text x="185" y="35">4</text>
        <text x="225" y="35">5</text>
        <text x="265" y="35">6</text>
        <text x="305" y="35">7</text>
        <text x="345" y="35">8</text>
        <text x="385" y="35">9</text>
        <text x="425" y="35">10</text>
        <text x="465" y="35">11</text>

        <text x="25" y="75">1</text>
        <text x="25" y="115">2</text>
        <text x="25" y="155">3</text>
        <text x="25" y="195">4</text>
        <text x="25" y="235">5</text>
        <text x="25" y="275">6</text>
        <text x="25" y="315">7</text>
        <text x="25" y="355">8</text>
        <text x="25" y="395">9</text>
        <text x="25" y="435">10</text>
        <text x="25" y="475">11</text>
        <text id="gameOver" x="50%" y="50%" dx="40" dy="40" stroke="#777" stroke-width="2" font-size="50" opacity="0">
            游戏结束
        </text>
    </g>
    <g id="debug" fill="#F00" stroke="#0F0">

    </g>
</svg>